<svg xmlns="http://www.w3.org/2000/svg" xmlns:svg="http://www.w3.org/2000/svg" id="svg3336" width="1024" height="1024" version="1.1"><metadata id="metadata3338"/><circle id="path5854" cx="672" cy="512" r="352" fill="#69207a" fill-opacity="1"/><ellipse id="circle5856" cx="144" cy="880" fill="#69207a" fill-opacity="1" rx="144" ry="144"/><circle id="circle5858" cx="144" cy="144" r="144" fill="#69207a" fill-opacity="1"/><path id="path5875" fill="#69207a" fill-opacity="1" fill-rule="evenodd" stroke="none" stroke-dasharray="none" stroke-dashoffset="0" stroke-linecap="butt" stroke-linejoin="miter" stroke-miterlimit="4" stroke-opacity="1" stroke-width="64" d="M 151.07291,92.109363 104.92707,163.89061 646.42967,511.99998 104.92707,860.10934 151.07291,931.8906 804.23435,511.99998 151.07291,92.109363 Z" baseline-shift="baseline" clip-rule="nonzero" color="#000" color-interpolation="sRGB" color-interpolation-filters="linearRGB" color-rendering="auto" direction="ltr" display="inline" enable-background="accumulate" font-family="sans-serif" font-size="medium" font-stretch="normal" font-style="normal" font-variant="normal" font-weight="normal" image-rendering="auto" letter-spacing="normal" opacity="1" overflow="visible" shape-rendering="auto" text-anchor="start" text-decoration="none" text-rendering="auto" visibility="visible" word-spacing="normal" writing-mode="lr-tb" style="line-height:normal;text-indent:0;text-align:start;text-decoration-line:none;text-decoration-style:solid;text-decoration-color:#000;text-transform:none;block-progression:tb;white-space:normal;isolation:auto;mix-blend-mode:normal;solid-color:#000;solid-opacity:1"/><path id="path8" fill="#fff" fill-opacity="1" d="m 576,288 0,32 32,0 0,128 -128,224 64,64 256,0 64,-64 -128,-224 0,-128 32,0 0,-32 z m 64,32 64,0 0,128 32,64 -64,0 -96,192 -32,-64 96,-192 z" color="#000" enable-background="accumulate" overflow="visible"/></svg>